<svg xmlns="http://www.w3.org/2000/svg" xmlns:xlink="http://www.w3.org/1999/xlink" width="115.608" height="26.65" viewBox="0 0 115.608 26.65"><defs><style>.a{fill:#fff;}.b{clip-path:url(#a);}.c{fill:#feb205;}</style><clipPath id="a"><rect class="a" width="115.608" height="26.65"/></clipPath></defs><g class="b"><path class="a" d="M33.082,117.925l-.1,2.03-.254.134a3.973,3.973,0,0,1-1.85.408,2.655,2.655,0,0,1-1.943-.753,3.069,3.069,0,0,1-.783-2.261V102.677l2.268-.883V117.35c0,1.067.532,1.084.732,1.09l.04,0a2.7,2.7,0,0,0,1.147-.194Z" transform="translate(-27.21 -98.389)"/><path class="a" d="M199.652,270.285a6.438,6.438,0,0,0-4.846-1.93,6.193,6.193,0,0,0-6.378,6.565c0,3.99,2.659,6.565,6.776,6.565a6.041,6.041,0,0,0,5.391-3.064l.231-.465-2-.913-.211.452a3.844,3.844,0,0,1-3.408,1.957,4.086,4.086,0,0,1-4.438-3.7H201.1l.04-.458a6.372,6.372,0,0,0-1.485-5.007m-4.846.1a4.336,4.336,0,0,1,3.2,1.234,3.172,3.172,0,0,1,.833,2.094h-8.014a3.886,3.886,0,0,1,3.983-3.328" transform="translate(-182.124 -259.378)"/><path class="a" d="M615.627,279.238a2.115,2.115,0,0,1-1.067.191c-.227-.007-.572-.02-.572-1v-5.408c0-3.448-2.917-4.669-5.418-4.669-2.518,0-4.492,1.284-5.027,3.274l-.117.438,2.057.773.151-.518a2.846,2.846,0,0,1,2.936-1.91c1.98,0,3.127.937,3.151,2.565v.615a21.948,21.948,0,0,0-3.659-.2c-3.288.107-5.331,1.689-5.331,4.131,0,2.335,2.084,3.967,5.067,3.967a6.738,6.738,0,0,0,4.2-1.375,2.288,2.288,0,0,0,2.284,1.375,3.581,3.581,0,0,0,1.746-.4l.271-.134.05-2.027ZM611.72,277.6c-.191.672-1.181,1.856-3.706,1.856-1.5-.017-3.017-.639-3.017-1.98,0-1.525,1.759-1.97,3.231-2.074.311-.023.619-.033.93-.033a16.666,16.666,0,0,1,2.562.214Z" transform="translate(-582.567 -259.378)"/><path class="a" d="M1031.338,277.731c0,.883-.395,3.756-5.465,3.756-2.077,0-4.672-1.1-5.391-3.144l-.151-.438,1.987-.883.171.535c.371,1.171,2.047,1.9,3.385,1.9a4.066,4.066,0,0,0,2.89-.776,1.229,1.229,0,0,0,.354-.95c-.033-1.057-1.836-1.552-3.682-1.967-1.368-.3-4.582-.993-4.582-3.672,0-1.856,1.749-3.732,5.09-3.732a5.574,5.574,0,0,1,5.208,2.866l.214.465-1.92.846-.211-.441a3.593,3.593,0,0,0-3.315-1.7,3.423,3.423,0,0,0-2.468.829,1.206,1.206,0,0,0-.378.87c.033.957,1.766,1.415,3.6,1.9l.174.047c1.448.345,4.492,1.074,4.492,3.692" transform="translate(-986.198 -259.379)"/><path class="a" d="M1394.269,270.285a6.437,6.437,0,0,0-4.846-1.93,6.193,6.193,0,0,0-6.378,6.565c0,3.99,2.659,6.565,6.776,6.565a6.041,6.041,0,0,0,5.391-3.064l.231-.465-2-.913-.211.452a3.844,3.844,0,0,1-3.408,1.957,4.088,4.088,0,0,1-4.438-3.7h10.331l.04-.458a6.371,6.371,0,0,0-1.485-5.007m-4.846.1a4.331,4.331,0,0,1,3.2,1.234,3.171,3.171,0,0,1,.833,2.094h-8.013a3.886,3.886,0,0,1,3.983-3.328" transform="translate(-1336.778 -259.378)"/><path class="a" d="M1831.253,268.356a5.543,5.543,0,0,0-4.344,1.833V268.5l-2.267.979v16.554h2.267v-6.395a5.444,5.444,0,0,0,4.344,1.853c3.733,0,6.144-2.575,6.144-6.565s-2.411-6.565-6.144-6.565m-4.321,6.682v-.207c.02-2.642,1.662-4.418,4.087-4.418,2.575,0,4.11,1.686,4.11,4.508s-1.535,4.508-4.11,4.508a4.087,4.087,0,0,1-4.087-4.391" transform="translate(-1763.601 -259.379)"/><path class="c" d="M2266.359,150.774a1.463,1.463,0,0,1-2.923,0,1.463,1.463,0,0,1,2.923,0" transform="translate(-2187.717 -144.386)"/><path class="a" d="M2298.1,160.761l-.2.5a5.894,5.894,0,0,1-5.452,3.384c-3.94,0-6.589-2.744-6.589-6.827a7.809,7.809,0,0,1,.6-3.108l-1.1.454-3.72,1.533v4.379c0,1.294.615,1.5,1.282,1.535a3.161,3.161,0,0,0,1.344-.224l.713-.265-.1,2.067-.334.1a6.161,6.161,0,0,1-2,.351,3.083,3.083,0,0,1-3.194-3.381v-3.621l-.971.4a3.288,3.288,0,0,1-2.872.012v6.588l-2.268,0V152.627l2.268-.967v2.725a2.9,2.9,0,0,0,.264.874c.285.6.711,1.093,1.908.6l1.671-.689v-6.725l2.29-.968v6.749l2.847-1.174,1.91-.759a27.769,27.769,0,0,1,4-1.073,7.03,7.03,0,0,1,1.389-.2h0q.321-.026.655-.027a5.9,5.9,0,0,1,5.448,3.36l.2.5-2.081.838-.19-.459a3.708,3.708,0,0,0-3.381-2.122c-2.648,0-4.3,1.805-4.3,4.713s1.649,4.688,4.3,4.688a3.716,3.716,0,0,0,3.379-2.09l.187-.459Z" transform="translate(-2197.187 -142.541)"/><path class="a" d="M3054.268,113.159v7.2h-2.291V113.3c0-3.191-1.17-3.83-3.057-3.83-2.311,0-3.88,1.8-3.9,4.488v6.4h-2.268V102.74l2.268-.946v7.4a5.459,5.459,0,0,1,4.181-1.829c3.412,0,5.067,1.893,5.067,5.793" transform="translate(-2940.962 -98.389)"/></g></svg>