<svg xmlns="http://www.w3.org/2000/svg" xmlns:xlink="http://www.w3.org/1999/xlink" width="493.649" height="444.189" viewBox="0 0 493.649 444.189"><defs><style>.a{fill:#ececec;opacity:0.39;}.b{fill:#ebe8ec;}.c{fill:#ecd0a1;}.d{fill:#1e2322;}.e{fill:#ddbb8a;}.f{fill:#0dcf87;}.g{fill:#f6fffd;}.ad,.h{fill:#fff;}.i{fill:#28243f;}.j{fill:#333049;}.k{fill:#3f2a3f;}.l{fill:url(#a);}.m{fill:url(#c);}.n{fill:#2a2a2a;}.o{fill:#777;}.p{fill:#a5a5a5;}.q{fill:#ffc053;}.r{fill:#ffe1ac;}.s{fill:#cfcfcf;}.t{fill:url(#e);}.u{fill:#d5d5d5;}.v{fill:url(#f);}.w{fill:#c7c7c7;}.x{fill:#ebebeb;}.y{fill:#9e9e9e;}.z{fill:#ede6db;mix-blend-mode:multiply;isolation:isolate;}.aa{fill:url(#g);}.ab{fill:#d3243e;}.ac{fill:#e8394a;}.ad{opacity:0.2;}</style><linearGradient id="a" x1="0.5" x2="0.5" y2="1" gradientUnits="objectBoundingBox"><stop offset="0" stop-color="#15db91"/><stop offset="1" stop-color="#0cc284"/></linearGradient><linearGradient id="c" x1="0.5" x2="0.5" y2="1" gradientUnits="objectBoundingBox"><stop offset="0" stop-color="#0dcf87"/><stop offset="1" stop-color="#15db91"/></linearGradient><linearGradient id="e" x1="20.813" y1="0.018" x2="21.703" y2="1.025" xlink:href="#a"/><linearGradient id="f" x1="28.997" y1="0.184" x2="30.046" y2="0.847" xlink:href="#a"/><linearGradient id="g" x1="56.185" y1="0.117" x2="55.598" y2="0.799" xlink:href="#a"/></defs><g transform="translate(-727.668 -136)"><rect class="a" width="355" height="275" rx="36" transform="translate(756 136)"/><g transform="translate(664.108 -23.682)"><g transform="translate(124.042 172.682)"><g transform="translate(109.507)"><g transform="translate(197.764 389.745)"><path class="b" d="M304.779,450.362a334.372,334.372,0,0,0,49.7,4.094,305.106,305.106,0,0,0,46.879-4.094l-1.871-4.155c-8.225-18.26-39.352-11.157-46.418-30h0c-5.89,18.845-38.193,11.742-46.418,30Z" transform="translate(-304.779 -416.205)"/></g><g transform="translate(240.163 282.188)"><rect class="b" width="12.956" height="121.311" transform="translate(12.956 121.311) rotate(180)"/></g><g transform="translate(225.809 381.191)"><path class="c" d="M340.343,423.224,334.69,410.86,322.3,415.421l3.439,12.719Z" transform="translate(-322.303 -410.86)"/></g><g transform="translate(198.218 393.364)"><path class="d" d="M350.671,418.466l2.974,10.1-13.1,4.139s-29.565,12.411-35.072,6.656c-2.524-2.636,7.1-5.238,13.277-9.327s15.881-9.865,15.881-9.865A62.329,62.329,0,0,0,350.671,418.466Z" transform="translate(-305.063 -418.466)"/></g><g transform="translate(163.01 398.368)"><path class="c" d="M298.459,435.048l-1.931-13.455-13.172.878-.293,13.172Z" transform="translate(-283.064 -421.593)"/></g><g transform="translate(128.993 408.743)"><path class="d" d="M311.253,430.967V441.5l-13.732.272s-31.866,3.561-35.525-3.515c-1.676-3.243,8.292-3.022,15.372-5.2s18.019-4.979,18.019-4.979A62.393,62.393,0,0,0,311.253,430.967Z" transform="translate(-261.809 -428.075)"/></g><g transform="translate(48.925 93.839)"><g transform="translate(0 42.614)"><path class="e" d="M222.176,301.355l18.2-6.037,16.11,4.078c9.071-2.357,12.088-2.226,30.661-7,15.681-4.033,33.689-12.074,33.689-12.074l13.348-22.379c8.638.786,26.779,10.208,26.779,10.208s-24.815,33.763-31.883,36.119-54.708,8.164-72.87,6.08c-5.72-.656-16.915-6.711-16.915-6.711l-14.359,2.385-11.2,7.559-1.954-1.618,4.454-4.88Z" transform="translate(-211.781 -257.941)"/></g><g transform="translate(117.3)"><path class="f" d="M303.941,231.315s23.139,3.873,22.747,24.68c-.256,13.553-18.845,38.867-18.845,38.867s-10.208-14.134-22.77-18.059c0,0,8.159-23.935,10.654-31.42C298.864,235.972,303.941,231.315,303.941,231.315Z" transform="translate(-285.073 -231.315)"/></g></g><g transform="translate(223.674 278.655)"><rect class="b" width="45.933" height="24.733" transform="translate(45.933 24.733) rotate(180)"/></g><g transform="translate(224.957 85.801)"><path class="b" d="M326.642,322.95q-3.392-44.878-4.872-89.872c28.393-12.64,91.728-7,97.651,11.757,6.285,19.9-17.667,76.556-17.667,97.755S410,379.1,411.176,388.524s-4.71,16.489-4.71,16.489h-72.6C332.014,377.623,328.706,350.278,326.642,322.95Z" transform="translate(-321.77 -226.293)"/></g><g transform="translate(224.84 85.8)"><path class="g" d="M326.686,322.951q-3.534-46.772-4.989-93.665c31.2-7.293,80.783-.939,85.99,15.55,6.283,19.9-17.667,76.556-17.667,97.755s8.244,36.511,9.422,45.933-4.71,16.489-4.71,16.489H333.907C332.058,377.624,328.75,350.278,326.686,322.951Z" transform="translate(-321.697 -226.292)"/></g><g transform="translate(173.03 264.521)"><path class="h" d="M7.958,0H136.622a0,0,0,0,1,0,0V22.378a0,0,0,0,1,0,0H0a0,0,0,0,1,0,0V7.958A7.958,7.958,0,0,1,7.958,0Z" transform="translate(136.622 22.378) rotate(180)"/></g><g transform="translate(129.227 209.951)"><path class="i" d="M331.67,307.005s-65.359,38.833-69.247,54.865C257.786,381,289.134,494.3,289.134,494.3c7.392,4.974,21.1,3.294,26.137-1.231,0,0-25.215-96.944-22.467-103.423,6.725-15.852,63.992-34.744,82.052-52.018s19.63-33.763,19.63-33.763Z" transform="translate(-261.955 -303.865)"/></g><g transform="translate(161.922 195.726)"><path class="j" d="M394.122,294.977s22.264,46.418,2.241,65.261c-9.166,8.628-64,.786-67.145,9.422l33.107,109.989s-5.838,3.55-17.616,9.439c0,0-68.883-121.391-61.816-137.094s54.57-24.733,56.925-33.371,3.926-22.77,3.926-22.77Z" transform="translate(-282.384 -294.977)"/></g><g transform="translate(175.697 22.709)"><path class="c" d="M294.515,233.981c1.421,5.39,3.948,11.328,9.239,13.082,4.862,1.612,10.03-.991,14.431-3.612,5.177-3.084,10.43-6.466,13.743-11.5,5.025-7.642,9.091-16.978,8.527-26.106-.2-3.227-4.923-7.184-6.882-9.756a14.48,14.48,0,0,0-5.509-3.955,57.629,57.629,0,0,0-15.473-4.835c-8.934-1.456-18.868.543-20.654,10.353C289.813,209.328,291.521,222.625,294.515,233.981Z" transform="translate(-290.991 -186.872)"/></g><g transform="translate(192.28 46.573)"><path class="k" d="M301.353,204.224a2.442,2.442,0,1,0,2.442-2.442A2.442,2.442,0,0,0,301.353,204.224Z" transform="translate(-301.353 -201.782)"/></g><g transform="translate(178.414 46.573)"><path class="k" d="M292.689,204.224a2.441,2.441,0,1,0,2.442-2.442A2.442,2.442,0,0,0,292.689,204.224Z" transform="translate(-292.689 -201.782)"/></g><g transform="translate(169.594 40.888)"><g transform="translate(18.788)"><path class="k" d="M307.438,215.244a8.507,8.507,0,1,1,8.519-8.508A8.525,8.525,0,0,1,307.438,215.244Zm0-15.441a6.933,6.933,0,1,0,6.948,6.933A6.951,6.951,0,0,0,307.438,199.8Z" transform="translate(-298.917 -198.23)"/></g><g transform="translate(13.224 0.716)"><path class="k" d="M296.7,201.937l-1.258-.949a5.781,5.781,0,0,1,4.361-2.3,6.674,6.674,0,0,1,5.161,2.061l-1.141,1.085a5.144,5.144,0,0,0-3.931-1.576A4.225,4.225,0,0,0,296.7,201.937Z" transform="translate(-295.441 -198.677)"/></g><path class="k" d="M295.7,215.244a8.507,8.507,0,1,1,8.519-8.508A8.523,8.523,0,0,1,295.7,215.244Zm0-15.441a6.933,6.933,0,1,0,6.948,6.933A6.949,6.949,0,0,0,295.7,199.8Z" transform="translate(-287.178 -198.23)"/></g><g transform="translate(188.342 57.891)"><path class="c" d="M352.776,235.477s-.1-1.764-6.381-3.334c-1.8-.45-4.055-.455-5.49-1.708-5.083-4.446-9.753-12.717-11.486-18.815a5.322,5.322,0,0,1-.27-2.767q-6.369,5.4-12.3,11.286c-1.351,1.343-9.527.583-8.538,2.4.275.509,2.359,5.273,4.408,9.889-3.966,2.6-8.334,5.992-8.334,5.992l-5.5,30.621,16.1,9.03s18.059-3.926,29.837-10.206S352.776,235.477,352.776,235.477Z" transform="translate(-298.892 -208.854)"/></g><g transform="translate(184.999 81.181)"><path class="l" d="M347.649,223.406s-4.712,8.638-16.489,13.741-22.377-10.208-22.377-10.208L296.9,236.064s-1.071,41.743,4.033,64.512,9.816,54.74,9.816,54.74,5.264,7.719,11.991,8.173c8.231.557,19.567-5.888,37.476-2.676,19.87,3.563,34.662.435,34.662.435s-15.286-74.693-18.82-89.611-12.7-45.485-12.7-45.485A126.327,126.327,0,0,0,347.649,223.406Z" transform="translate(-296.804 -223.406)"/></g><g transform="translate(0 118.879)"><g transform="translate(23.042 67.579)"><path class="b" d="M0,0H70.519a3.008,3.008,0,0,1,3.008,3.008V5.929a0,0,0,0,1,0,0H0a0,0,0,0,1,0,0V0A0,0,0,0,1,0,0Z" transform="translate(73.527 5.929) rotate(180)"/></g><path class="l" d="M230.809,246.975a4.856,4.856,0,0,1,4.564,3.2l23.349,64.444-1.44.6.379,1.125-53.407-1.805-22.733-61.028a4.855,4.855,0,0,1,4.553-6.551Z" transform="translate(-181.211 -246.961)"/><g transform="translate(30.418 26.976)"><path class="b" d="M201.127,275.006c1.583,6.082,4.689,10.929,6.936,10.83s2.783-5.109,1.2-11.189-4.689-10.93-6.936-10.83S199.543,268.926,201.127,275.006Z" transform="translate(-200.217 -263.816)"/></g></g><g transform="translate(182.283 43.361)"><path class="k" d="M300.053,200.153c.09,4.708-1.808,8.239-3.777,12.363-.861,1.807-1.594,4.278-.883,6.263a.726.726,0,0,0,.679.517c1.826-.054,3.918-1.311,5.578-2.053.683-.307.2-1.477-.514-1.22-.779.282-1.575.695-2.372.912-1.695.463-1.983.738-2.052-1.059-.083-2.218,1.895-4.632,2.724-6.645a18.969,18.969,0,0,0,1.4-9.078c-.042-.495-.792-.512-.783,0Z" transform="translate(-295.106 -199.775)"/></g><g transform="translate(192.813 37.217)"><path class="k" d="M302.416,198.122a13.375,13.375,0,0,0,2.99.383c1.056.094,2.1.238,3.156.362,1.356.16,1.685-2.186.325-2.4-1.993-.315-4.488-.811-6.471-.32a1.035,1.035,0,0,0,0,1.978Z" transform="translate(-301.686 -195.937)"/></g><g transform="translate(177.356 37.016)"><path class="k" d="M292.555,198.232c1.666.27,3.363-.013,5.054.1,1.584.107,1.532-2.273,0-2.437-1.751-.186-3.795-.147-5.235.959-.443.341-.539,1.261.181,1.378Z" transform="translate(-292.027 -195.811)"/></g><g transform="translate(204.169 43.736)"><path class="k" d="M309.275,204.1a26.356,26.356,0,0,0,4.833-1.328,21.538,21.538,0,0,0,4.744-1.712.567.567,0,0,0-.283-1.048,16.95,16.95,0,0,0-4.888,1.213,19.9,19.9,0,0,0-4.667,1.916c-.387.251-.286,1.024.261.96Z" transform="translate(-308.781 -200.01)"/></g><g transform="translate(163.194)"><path class="j" d="M312.408,208.209c-7.641-.5-15.675-.547-22.353-4.027-3.246-1.69-6.16-4.388-6.781-7.793s1.871-7.352,5.586-7.6a4.846,4.846,0,0,0,2.237-.357,3.14,3.14,0,0,0,1.077-2.445c.829-6.058,5.925-12.167,12.508-12.018,5.368.12,10.365,4.252,15.561,3a22.752,22.752,0,0,0,4.47-1.961,24.054,24.054,0,0,1,14.484-1.969c5.152.915,10.616,4.981,9.355,9.7-.421,1.578-1.551,2.95-1.853,4.55-1.076,5.712,8.025,8.559,9.822,14.113,1.637,5.053-3.359,10.084-2.975,15.348.214,2.926,1.919,6.363-.307,8.444-1.189,1.111-3.217,1.388-4.014,2.767-1.085,1.879.936,4.011,1.112,6.136.221,2.634-2.788,4.845-5.627,4.621a7.968,7.968,0,0,1-6.317-4.753,17.129,17.129,0,0,1-1.112-7.794c4.808-1.352,7.767-9.273,3.242-11.3-2.412-1.08-4.977,1.54-5.891,3.761C329.856,211.062,322.233,208.209,312.408,208.209Z" transform="translate(-283.179 -172.682)"/><g transform="translate(8.689 40.825)"><path class="j" d="M328.663,205.086q-2.381,5.481-4.761,10.963a10.575,10.575,0,0,1-2.526,4.017c-1.857,1.581-4.572,1.684-6.962,1.2s-6.959-1.8-9.388-1.589c-5.552.475-9.64,3.135-9.993,3.806-.712,1.357.288,3.468.31,5a8.76,8.76,0,0,1-1.063,4.646A15.152,15.152,0,0,1,292.2,235.6c-1.972,2.1-3.748,4.715-3.587,7.589.221,3.931,3.843,6.677,7.122,8.854a14.072,14.072,0,0,0,11.8,3.286,50.361,50.361,0,0,0,10.416-1.663,16.962,16.962,0,0,0,8.713-5.669c1.807-2.4,2.69-5.358,3.532-8.246,1.359-4.67,2.7-9.4,2.87-14.265.158-4.556-.72-9.076-1.181-13.612a74.657,74.657,0,0,1-.253-11.919c.029-.483.082-1.655-.634-1.756-.791-.11-.514,1.08-.623,1.575A28.324,28.324,0,0,1,328.663,205.086Z" transform="translate(-288.608 -198.191)"/></g><g transform="translate(19.078 65.764)"><path class="c" d="M295.482,216.578a4.487,4.487,0,0,0,.922,4.968,2.79,2.79,0,0,0,2.181.882,1.64,1.64,0,0,0,1.492-1.615c-.024-.3-.144-.624.014-.879a.939.939,0,0,1,.781-.3c1.083-.058,2.407.011,2.918.97.154.291.206.632.383.911a2.215,2.215,0,0,0,2.127.683,12.428,12.428,0,0,0,3.3-.735,3.781,3.781,0,0,0,1.471-.869,1.6,1.6,0,0,0,.416-1.583,2.4,2.4,0,0,0-.957-1.032C307.134,215.565,298.212,210.666,295.482,216.578Z" transform="translate(-295.099 -213.773)"/></g><g transform="translate(20.946 67.377)"><path class="k" d="M296.463,215.937c1.784,1.124,5.525,1.184,7.244-.12a.561.561,0,0,0-.282-1.035c-1.127.006-2.215.45-3.358.507s-2.261-.173-3.4-.117a.414.414,0,0,0-.208.765Z" transform="translate(-296.266 -214.781)"/></g></g><g transform="translate(232.148 200.522)"><path class="h" d="M326.4,368.673s-2.263-63.368,11.883-67.552,45.267-2.99,45.267-2.99l2.83,11.358s-40.741-2.99-46.4,4.782,0,55,0,55Z" transform="translate(-326.263 -297.973)"/></g><g transform="translate(77.512 83.929)"><g transform="translate(30.393 42.396)"><path class="c" d="M259.026,303.181l18.2-6.037,16.11,4.078c9.071-2.357,12.088-2.226,30.661-7,15.681-4.031,33.689-12.074,33.689-12.074l20.435-30.533c8.636.784,19.692,18.362,19.692,18.362S373,303.738,365.93,306.094s-60.972,8.607-79.134,6.525c-5.72-.656-15.836-6.919-15.836-6.919l-9.174,2.149-11.2,7.557-1.954-1.618,4.454-4.88Z" transform="translate(-248.633 -251.613)"/></g><g transform="translate(156.371)"><path class="m" d="M345.013,225.123s24.341,3.926,23.949,24.733c-.256,13.553-18.845,38.867-18.845,38.867s-10.208-14.134-22.77-18.059c0,0,9.814-19.237,10.6-27.089S345.013,225.123,345.013,225.123Z" transform="translate(-327.347 -225.123)"/></g><g transform="translate(0 102.529)"><path class="h" d="M0,0H70.518a3.008,3.008,0,0,1,3.008,3.008V5.929a0,0,0,0,1,0,0H0a0,0,0,0,1,0,0V0A0,0,0,0,1,0,0Z" transform="translate(73.526 5.929) rotate(180)"/><g transform="translate(42.155 1.885)"><rect class="b" width="24.509" height="1.838" transform="translate(24.509 1.838) rotate(180)"/></g><g transform="translate(34.854 1.885)"><rect class="b" width="3.625" height="1.838" transform="translate(3.625 1.838) rotate(180)"/></g></g></g></g><g transform="translate(0 191.882)"><g transform="translate(311.717 18.157)"><path class="n" d="M344.708,525.07h4.512L298.389,303.92h-9.573Z" transform="translate(-288.816 -303.92)"/></g><g transform="translate(229.874 18.157)"><path class="n" d="M237.678,522.756h4.512l32.7-218.836h-9.573Z" transform="translate(-237.678 -303.92)"/></g><g transform="translate(120.38 18.157)"><path class="n" d="M210.259,524.092h4.512L178.837,303.92h-9.573Z" transform="translate(-169.264 -303.92)"/></g><g transform="translate(34.738 18.157)"><path class="n" d="M115.752,521.753h4.512L163.516,303.92h-9.573Z" transform="translate(-115.752 -303.92)"/></g><g transform="translate(109.896 8.269)"><path class="o" d="M0,0H238.445V9.887H0Z" transform="translate(238.445 9.887) rotate(180)"/></g><g transform="translate(33.434 8.269)"><rect class="p" width="219.888" height="9.887" transform="translate(219.888 9.887) rotate(180)"/></g><g transform="translate(115.198)"><rect class="q" width="255.02" height="13.231" transform="translate(255.02 13.231) rotate(180)"/></g><rect class="r" width="236.463" height="13.231" transform="translate(236.463 13.231) rotate(180)"/></g></g></g><g transform="translate(3137.135 639.069)"><path class="l" d="M-2372.443,15.176c-3.86,3.548-6.646-4.6-10.513,1.053s-10.675,18.294-23.826,15.3c-3.713-5.156-3.732-21.042.928-26.443,2.764-3.2,7.938-1.6,11.449-2.994C-2388.525-.236-2378.571-2.72-2372.443,15.176Z" transform="translate(0 -117.9)"/><path class="s" d="M-2345.353,56.567l-.076-.878c-.021-.291-.063-.631-.111-1.032s-.11-.864-.191-1.385c-.164-1.039-.395-2.3-.757-3.723a45.539,45.539,0,0,0-1.459-4.714,44.548,44.548,0,0,0-2.371-5.339,41.563,41.563,0,0,0-3.45-5.524c-.678-.9-1.4-1.793-2.18-2.654a29.7,29.7,0,0,0-2.514-2.444,18.656,18.656,0,0,0-6.049-3.608,11.955,11.955,0,0,0-3.429-.653,10.262,10.262,0,0,0-3.408.464,11.6,11.6,0,0,0-3.063,1.505,15.848,15.848,0,0,0-2.542,2.227,22.15,22.15,0,0,0-2.057,2.589,30.654,30.654,0,0,0-1.641,2.734,44.935,44.935,0,0,0-2.393,5.362c-.3.86-.608,1.681-.852,2.477-.264.79-.482,1.549-.688,2.263-.406,1.429-.727,2.686-.966,3.727s-.417,1.861-.537,2.421l-.181.859,0,.008a.375.375,0,0,1-.444.29.375.375,0,0,1-.29-.44l.173-.867c.115-.565.271-1.4.515-2.446.229-1.052.539-2.325.934-3.774.2-.724.413-1.495.671-2.3.239-.809.537-1.646.837-2.522a45.834,45.834,0,0,1,2.384-5.5,25.985,25.985,0,0,1,3.786-5.571,16.857,16.857,0,0,1,2.688-2.4,12.678,12.678,0,0,1,3.334-1.681,11.383,11.383,0,0,1,3.773-.555,13.122,13.122,0,0,1,3.769.673,19.851,19.851,0,0,1,6.489,3.766,31.029,31.029,0,0,1,2.655,2.524c.818.886,1.58,1.8,2.293,2.729a42.991,42.991,0,0,1,3.626,5.668,45.978,45.978,0,0,1,2.506,5.48,47.044,47.044,0,0,1,1.56,4.853c.391,1.469.645,2.772.826,3.85.09.538.166,1.021.216,1.45s.1.789.127,1.072c.055.572.085.877.085.877a.8.8,0,0,1-.72.876.8.8,0,0,1-.876-.721S-2345.353,56.569-2345.353,56.567Z" transform="translate(-20.146 -138.539)"/><path class="t" d="M-1923.24-102.438c6.087,1.231,9.8-9.211,15.37-7.548s23.517,6.486,24.755-13.3c-3.4-7.983-17.638-10.312-25.14-4.157-9.052,7.428-11.064,5.861-13.849,10.018S-1925-106.034-1923.24-102.438Z" transform="translate(-435.17 0)"/><path class="u" d="M-1976-56.522s.027-.286.078-.822.152-1.357.308-2.361a60.517,60.517,0,0,1,1.927-8.2,75.3,75.3,0,0,1,4.367-11.035c.961-1.948,2.026-3.927,3.227-5.868a58.79,58.79,0,0,1,3.955-5.68,44.353,44.353,0,0,1,4.706-5.1,30.735,30.735,0,0,1,5.414-4.015,21.62,21.62,0,0,1,5.875-2.352,17.781,17.781,0,0,1,2.916-.427c.474-.047.944-.028,1.4-.04.459.022.911.028,1.349.077a18.946,18.946,0,0,1,4.676,1.063,21.654,21.654,0,0,1,3.347,1.543c.452.239.833.488,1.17.7s.616.4.839.552l.688.475a.375.375,0,0,1,.1.522.375.375,0,0,1-.518.1l-.015-.01-.675-.455c-.219-.15-.49-.333-.823-.527s-.7-.436-1.142-.662a20.837,20.837,0,0,0-3.243-1.45,18.1,18.1,0,0,0-4.475-.964c-.418-.042-.847-.042-1.282-.058-.436.017-.881,0-1.331.053a16.852,16.852,0,0,0-2.761.437,20.61,20.61,0,0,0-5.58,2.311,29.666,29.666,0,0,0-5.181,3.938,43.236,43.236,0,0,0-4.525,5.016,57.513,57.513,0,0,0-3.807,5.606c-1.156,1.917-2.179,3.873-3.1,5.8a73.789,73.789,0,0,0-4.159,10.877,58.9,58.9,0,0,0-1.786,8.014c-.141.983-.221,1.739-.27,2.267s-.068.823-.068.823a.8.8,0,0,1-.865.734.8.8,0,0,1-.734-.865S-1976-56.52-1976-56.522Z" transform="translate(-388.877 -25.595)"/><path class="v" d="M-1898.315,171.731c4.327,4.128,7.245-1.1,10.221,2.067s10.609,12.482,19.376,2.282c-.31-6.653-4.47-13.194-11.724-13.748s-8.154,2.993-12.191,2.883A5.738,5.738,0,0,0-1898.315,171.731Z" transform="translate(-458.488 -263.06)"/><path class="w" d="M-1965.325,213.53l.2-.47.244-.564c.1-.222.2-.478.351-.763l.475-.946c.169-.347.392-.693.608-1.079.113-.19.22-.391.347-.588l.4-.6.42-.635.477-.639c.165-.216.323-.444.5-.662l.557-.66c.366-.459.8-.88,1.228-1.335a23.325,23.325,0,0,1,2.981-2.534c.54-.413,1.141-.76,1.73-1.135.616-.332,1.229-.687,1.886-.969a19.048,19.048,0,0,1,4.1-1.368,18.984,18.984,0,0,1,4.3-.4,18.087,18.087,0,0,1,4.135.642,18.01,18.01,0,0,1,3.616,1.486l.789.473c.129.079.259.153.384.233l.36.256.7.5c.227.167.432.353.642.524l.609.511.545.527.517.5.453.507a22.334,22.334,0,0,1,1.438,1.757c.2.244.344.486.482.686l.345.516.287.429a.225.225,0,0,1-.062.312.225.225,0,0,1-.311-.059l-.009-.012-.287-.418-.344-.5c-.139-.2-.282-.432-.481-.669a22.135,22.135,0,0,0-1.427-1.7l-.448-.49-.51-.483-.536-.508-.6-.491c-.206-.164-.407-.343-.63-.5l-.687-.477-.352-.245c-.122-.076-.249-.147-.375-.221l-.769-.45a17.39,17.39,0,0,0-3.507-1.395,17.435,17.435,0,0,0-3.988-.574,18.316,18.316,0,0,0-4.135.436,18.308,18.308,0,0,0-3.932,1.362c-.63.278-1.218.628-1.808.954-.565.37-1.14.708-1.656,1.114a22.549,22.549,0,0,0-2.85,2.478c-.4.445-.823.855-1.171,1.3l-.531.643c-.171.213-.322.435-.479.645l-.454.622-.4.618-.378.588c-.121.192-.222.388-.329.572-.2.374-.418.715-.574,1.045l-.442.9c-.139.267-.242.528-.336.751s-.173.413-.238.567l-.2.472a.481.481,0,0,1-.63.258.481.481,0,0,1-.258-.63Z" transform="translate(-398.424 -295.265)"/><path class="x" d="M-2107.716,320.923a41.125,41.125,0,0,1-3.794,10.332,30.276,30.276,0,0,1-2.283,3.659h-20.734a30.305,30.305,0,0,1-2.282-3.659,41.065,41.065,0,0,1-3.647-9.7c-.228-.957-.414-1.907-.558-2.834a22.768,22.768,0,0,1-.165-6.6h34.038A25.415,25.415,0,0,1-2107.716,320.923Z" transform="translate(-240.541 -397.502)"/><path class="y" d="M-2097.206,498.079a30.07,30.07,0,0,0,2.283,3.658h20.732a30.042,30.042,0,0,0,2.283-3.658Z" transform="translate(-280.143 -564.327)"/><path class="y" d="M-2141.014,318.723c.975-.562,1.98-.539,3.153.728,2.234,2.415,4.2,5.471,6.909,2.142,3-3.685,4.654-5.744,7.906-1.271,2.414,3.316,4.613,6.889,7.952,4.774,2.262-1.434,3.543-4.065,6.127-4.268a4.108,4.108,0,0,1,1.25.093,25.429,25.429,0,0,0,.575-8.795h-34.038A22.714,22.714,0,0,0-2141.014,318.723Z" transform="translate(-240.54 -397.501)"/><path class="z" d="M-2129.392,312.129c-.135,4.853-4.913,8.83-11.064,9.43-.228-.957-.414-1.907-.558-2.834a22.768,22.768,0,0,1-.165-6.6Z" transform="translate(-240.541 -397.502)"/><path class="aa" d="M-2134.25,185.425c-1.1,2.5-3.4-1.517-4.126,4.248s-3.2,11.642-11.655,11.642c-2.476-4.1.619-15.523,3.713-16.964s7-5.367,10.418-3.2A4.015,4.015,0,0,1-2134.25,185.425Z" transform="translate(-231.944 -279.424)"/><path class="u" d="M-2125.1,215.467s0-.137-.008-.394c0-.128-.006-.287-.01-.472s-.006-.4-.029-.629-.038-.486-.059-.763-.079-.579-.121-.9a15.292,15.292,0,0,0-.49-2.113,10.188,10.188,0,0,0-1.074-2.286,4.991,4.991,0,0,0-2-1.813,3.95,3.95,0,0,0-2.81-.164,7.035,7.035,0,0,0-2.646,1.586,7.658,7.658,0,0,0-.574.553l-.281.283-.26.3c-.171.2-.349.4-.514.611l-.473.641c-.162.21-.307.431-.448.653l-.427.66c-.265.449-.518.9-.768,1.341l-.676,1.337-.588,1.311c-.19.427-.346.855-.513,1.262l-.24.6-.208.589-.392,1.105-.32,1.009c-.2.633-.375,1.186-.5,1.648l-.4,1.446,0,.007a.225.225,0,0,1-.277.156.225.225,0,0,1-.157-.274l.384-1.461c.115-.467.28-1.027.475-1.669l.308-1.022q.18-.535.38-1.122l.2-.6.233-.613c.163-.415.315-.85.5-1.286l.577-1.34.668-1.372c.249-.455.5-.92.765-1.384l.429-.685c.142-.231.287-.461.452-.681l.481-.671c.168-.219.351-.43.527-.646l.268-.321.292-.3a8.282,8.282,0,0,1,.6-.594,7.749,7.749,0,0,1,2.9-1.781,4.739,4.739,0,0,1,3.366.157,5.808,5.808,0,0,1,2.369,2.066,11.024,11.024,0,0,1,1.214,2.483,16.137,16.137,0,0,1,.555,2.241c.05.339.107.654.141.95s.053.571.076.818.033.463.039.648l.016.473c.009.257.014.393.014.393a.481.481,0,0,1-.464.5.481.481,0,0,1-.5-.464Z" transform="translate(-239.618 -301.371)"/></g><g transform="translate(-4445.153 -1191.976)"><g transform="translate(5299.349 1473.19)"><path class="h" d="M5414.636,1502.379a4.82,4.82,0,0,1-.111-3.639,14.1,14.1,0,0,1,1.676-3.309,15.064,15.064,0,0,0,1.836-3.729,8.024,8.024,0,0,0-.091-4.465c-.873-2.814-2.661-4.887-3.894-7.009a10.039,10.039,0,0,1-1.322-3.37,5.8,5.8,0,0,1,.439-3.668,5.3,5.3,0,0,0-1.578,3.732,9.493,9.493,0,0,0,.835,4.1c1.069,2.555,2.673,4.629,3.3,6.872a6.02,6.02,0,0,1,.189,3.262,17.778,17.778,0,0,1-1.306,3.426,11.9,11.9,0,0,0-1.2,3.945A4.624,4.624,0,0,0,5414.636,1502.379Z" transform="translate(-5411.583 -1473.19)"/></g><g transform="translate(5285.991 1503.926)"><path class="ab" d="M5285.991,1817.277a6.861,6.861,0,1,0,6.86-6.961A6.911,6.911,0,0,0,5285.991,1817.277Zm2.446,0a4.414,4.414,0,1,1,4.414,4.479A4.446,4.446,0,0,1,5288.438,1817.277Z" transform="translate(-5285.991 -1805.197)"/><path class="ac" d="M11.9,0h0A11.9,11.9,0,0,1,23.8,11.9V34.632a0,0,0,0,1,0,0H0a0,0,0,0,1,0,0V11.9A11.9,11.9,0,0,1,11.9,0Z" transform="translate(27.763 28.632) rotate(180)"/><path class="ad" d="M5480.04,1787.31h0a.857.857,0,0,0,.854-.854v-11.014a.857.857,0,0,0-.854-.854h0a.857.857,0,0,0-.854.854v11.014A.857.857,0,0,0,5480.04,1787.31Z" transform="translate(-5458.639 -1773.269)"/><path class="ab" d="M5364.518,1762.186v18.63a4,4,0,0,0,4,4h-3.649a4,4,0,0,1-4-4v-18.63Z" transform="translate(-5352.905 -1762.186)"/></g></g></g></svg>